<?xml version="1.0" encoding="utf-8"?>
<!-- Generator: Adobe Illustrator 24.3.0, SVG Export Plug-In . SVG Version: 6.00 Build 0)  -->
<svg version="1.0" id="分離模式" xmlns="http://www.w3.org/2000/svg" xmlns:xlink="http://www.w3.org/1999/xlink" x="0px"
	 y="0px" viewBox="0 0 750.9 864" style="enable-background:new 0 0 750.9 864;" xml:space="preserve">
<style type="text/css">
	.st0{fill:#FFFFFF;}
	.st1{fill:#C1302C;}
</style>
<path class="st0" d="M280.1,2.4v423.1h62.8V244.8h44.3v-52.6h-44.3V55h46.2V2.4H280.1z M157,2.4v423.1h62.8V244.8h44.3v-52.6h-44.3
	V55H266V2.4H157z M77.6,55.6v316.7c0,3-1.8,4.8-4.9,4.8h-4.9c-3.7,0-4.9-1.8-4.9-4.8V55.6c0-3,1.2-4.8,4.9-4.8h4.9
	C75.7,50.8,77.6,52.6,77.6,55.6 M140.4,373.5V54.4C140.4,18.1,121.9,0,85,0H55.4C17.9,0,0,18.1,0,54.4v319.1
	c0,36.3,17.9,54.4,55.4,54.4H85C121.9,427.9,140.4,409.8,140.4,373.5"/>
<path class="st0" d="M629.2,438.5h-62.8v369.9c0,3-1.2,4.8-4.9,4.8h-3.7c-3.1,0-4.9-1.8-4.9-4.8V438.5H490v371.1
	c0,36.3,18.5,54.4,55.4,54.4h28.3c37.6,0,55.4-18.1,55.4-54.4V438.5z M472.8,861.6V438.5h-52.3l4.9,197.7l-26.5-197.7h-59.7v423.1
	h52.3l-4.3-206.1l28.9,206.1H472.8z M212.4,438.5v423.1h111.4V809h-48.6V673.6h46.2V621h-46.2v-130h48v-52.6H212.4z M195.2,438.5
	h-88L94.8,671.8l-7.4-233.3H0v423.1h48.6L48,547.3l16.6,314.3H117l19.1-314.3L133,861.6h62.2V438.5z"/>
<path class="st1" d="M710.7,449.8c10.9,10.1,24.9,24.7,31,34.6l-11.9,8.6c-1.5-2.6-3.7-5.7-6.1-9c-62.7,3.1-71,3.3-77.3,5.4
	c-0.7-2.8-3-9.8-4.6-13.5c3.1-0.8,5.9-3.1,9.8-6.8c4.1-3.7,17-17.9,25-32.1l14.2,6c-7.4,11-16.8,21.5-25.7,30.1l48.4-1.5
	c-4.6-5.2-9.3-10.1-13.7-14.5L710.7,449.8z M650.3,497.3h79.5v51.7h-15.1V543h-50v6h-14.4V497.3z M664.7,529.6h50v-18.9h-50V529.6z"
	/>
<path class="st1" d="M651.1,609.1c-3.3-3.5-11.1-8.8-17-12l7.7-9.8c6,2.8,13.7,7.4,17.6,11.1L651.1,609.1z M653.2,578.8
	c-3.3-3.9-10.7-9.3-16.6-13l8-9.4c5.8,3.2,13.5,8.1,17.1,11.9L653.2,578.8z M636.8,656.8c4.2-9.2,10.3-24.1,14.6-37.8l11.1,7.1
	c-3.8,12.5-8.6,26.2-13.2,37.6L636.8,656.8z M668.2,600.5c-0.9,5.8-2.7,11.8-4.8,15.9c-1.4-1.3-4.1-3.3-5.8-4.2
	c2.1-3.8,3.2-8.6,3.9-13.3L668.2,600.5z M682.8,595.8c-0.2-1.1-0.6-2.4-1.1-3.8c-14.9,2.1-18.1,2.8-19.8,3.7
	c-0.4-1.2-1.8-4.1-2.7-5.8c1.9-0.2,3.4-1.8,5.5-4c1.2-1.1,3.4-3.9,6-7.6c-6.1,0.5-8.1,0.9-9.3,1.5c-0.5-1.2-1.8-4.1-2.7-5.5
	c1.4-0.2,2.5-1.4,3.7-3.3c1.4-1.7,5.4-8.6,7.2-15l7.6,2.7c-1.8,4.4-4.4,8.8-7.3,12.9l5.3-0.2c1.1-1.8,2-3.5,2.8-5.3l7.2,3.4
	c-3.3,5.8-7.8,11.9-12.6,17.2l6.7-0.7c-0.5-1.1-1.1-2.1-1.5-3.1l5.8-2.1c2.1,3.9,4.5,9.1,5.2,12.3L682.8,595.8z M740.5,639.8
	c0,0-0.2,3.4-0.7,5c-1.9,9.4-4,14.6-7.2,17.2c-3.1,2.2-6.3,2.8-11,3.1c-3.9,0.1-11,0-18.3-0.2c-0.2-3.1-1.8-7.3-3.8-10.3
	c7,0.7,14.9,0.8,17.7,0.8c2.5,0,3.9-0.1,5.1-0.9c1.3-0.9,2.4-2.8,3.4-6.1h-59.7c1.9-5.5,3.9-13.6,5.3-20.2h50.4v-3.8h-53.9v-7.8
	h66.9V636h-52.3l-0.9,3.8H740.5z M671.7,614.1c-0.1-3.7-0.9-9.2-2.2-13.7l6-1.5c1.4,4.4,2.4,9.7,2.5,13.2L671.7,614.1z M682,611.4
	c-0.5-3.4-1.8-8.6-3.3-12.6l5.4-2c1.8,3.8,3.2,8.8,3.7,12L682,611.4z M715,574h-28.2v-7.3h11.1c-0.8-2.6-2.2-5.9-3.5-8.4l9.2-1.9
	c1.5,2.8,3.4,6.7,4.2,9.1l-4.7,1.2H715V574z M690.1,595.7h22.5v17.6h-22.5V595.7z M712.7,583.4h-22.4V577h22.4V583.4z M712.7,592.6
	h-22.4v-6.4h22.4V592.6z M698.3,607.1h5.9v-5.2h-5.9V607.1z M723.8,600.2c-0.9,5.5-2.6,11.8-4.7,15.7c-1.3-1.2-4.1-3.1-5.8-4.1
	c2.1-3.8,3.2-8.6,3.9-13.3L723.8,600.2z M738.6,596c-0.2-1.1-0.7-2.4-1.2-3.8c-15,2.1-17.9,2.7-19.9,3.7c-0.2-1.3-1.7-4.2-2.7-5.8
	c2-0.4,3.7-1.9,5.5-4.2c1.2-1.1,3.4-3.9,6-7.4c-6.1,0.5-8,0.9-9.4,1.5c-0.4-1.2-1.7-4.1-2.6-5.7c1.4-0.2,2.5-1.4,3.7-3.2
	c1.3-1.7,5.4-8.6,7.3-15.1l7.6,2.8c-1.8,4.2-4.5,8.8-7.4,12.9l5.5-0.2c0.8-1.8,1.8-3.5,2.6-5.3l7.3,3.2c-3.4,5.8-7.8,12-12.6,17.2
	l6.6-0.7c-0.5-1.1-0.9-2-1.4-3l5.7-2c2.1,3.8,4.6,9.2,5.3,12.5L738.6,596z M727.2,615.3c-0.1-3.7-1.1-10-2.4-14.6l6.1-1.7
	c1.3,4.6,2.5,10.6,2.5,14.3L727.2,615.3z M739.8,596.6c1.9,4.5,3.8,10.5,4.2,14.3l-5.9,2.7c-0.5-4-2.1-10.3-4-14.9L739.8,596.6z"/>
</svg>
