<?xml version="1.0" encoding="utf-8"?>
<!-- Generator: Adobe Illustrator 21.0.2, SVG Export Plug-In . SVG Version: 6.00 Build 0)  -->
<svg version="1.1" id="分離模式" xmlns="http://www.w3.org/2000/svg" xmlns:xlink="http://www.w3.org/1999/xlink" x="0px"
	 y="0px" viewBox="0 0 750.9 864" style="enable-background:new 0 0 750.9 864;" xml:space="preserve">
<style type="text/css">
	.st0{fill:#FFFFFF;}
	.st1{fill:#C1302C;}
</style>
<path class="st0" d="M280.1,2.4v423.1h62.8V244.8h44.3v-52.6h-44.3V55h46.2V2.4H280.1z M157,2.4v423.1h62.8V244.8h44.3v-52.6h-44.3
	V55H266V2.4H157z M77.6,55.6v316.7c0,3-1.8,4.8-4.9,4.8h-4.9c-3.7,0-4.9-1.8-4.9-4.8V55.6c0-3,1.2-4.8,4.9-4.8h4.9
	C75.7,50.8,77.6,52.6,77.6,55.6 M140.4,373.5V54.4C140.4,18.1,121.9,0,85,0H55.4C17.9,0,0,18.1,0,54.4v319.1
	c0,36.3,17.9,54.4,55.4,54.4H85C121.9,427.9,140.4,409.8,140.4,373.5"/>
<path class="st0" d="M629.2,438.5h-62.8v369.9c0,3-1.2,4.8-4.9,4.8h-3.7c-3.1,0-4.9-1.8-4.9-4.8V438.5H490v371.1
	c0,36.3,18.5,54.4,55.4,54.4h28.3c37.6,0,55.4-18.1,55.4-54.4V438.5z M472.8,861.6V438.5h-52.3l4.9,197.7l-26.5-197.7h-59.7v423.1
	h52.3l-4.3-206.1l28.9,206.1H472.8z M212.4,438.5v423.1h111.4V809h-48.6V673.6h46.2V621h-46.2v-130h48v-52.6H212.4z M195.2,438.5
	h-88L94.8,671.8l-7.4-233.3H0v423.1h48.6L48,547.3l16.6,314.3H117l19.1-314.3L133,861.6h62.2V438.5z"/>
<path class="st1" d="M710.7,449.8c10.9,10.1,24.9,24.7,31,34.6l-11.9,8.6c-1.5-2.6-3.7-5.7-6.1-9c-62.7,3.1-71,3.3-77.3,5.4
	c-0.7-2.8-3-9.8-4.6-13.5c3.1-0.8,5.9-3.1,9.8-6.8c4.1-3.7,17-17.9,25-32.1l14.2,6c-7.4,11-16.8,21.5-25.7,30.1l48.4-1.5
	c-4.6-5.2-9.3-10.1-13.7-14.5L710.7,449.8z M650.3,497.3h79.5v51.7h-15.1V543h-50v6h-14.4V497.3z M664.7,529.6h50v-18.9h-50V529.6z"
	/>
<path class="st1" d="M651.1,609.1c-3.3-3.5-11.1-8.8-17-12l7.7-9.8c6,2.8,13.7,7.4,17.6,11.1L651.1,609.1z M653.2,578.8
	c-3.3-3.9-10.7-9.3-16.6-13l8-9.4c5.8,3.2,13.5,8.1,17.1,11.9L653.2,578.8z M636.8,656.8c4.2-9.2,10.3-24.1,14.6-37.8l11.1,7.1
	c-3.8,12.5-8.6,26.2-13.2,37.6L636.8,656.8z M668.2,600.5c-0.9,5.8-2.7,11.8-4.8,15.9c-1.4-1.3-4.1-3.3-5.8-4.2
	c2.1-3.8,3.2-8.6,3.9-13.3L668.2,600.5z M682.8,595.8c-0.2-1.1-0.6-2.4-1.1-3.8c-14.9,2.1-18.1,2.8-19.8,3.7
	c-0.4-1.2-1.8-4.1-2.7-5.8c1.9-0.2,3.4-1.8,5.5-4c1.2-1.1,3.4-3.9,6-7.6c-6.1,0.5-8.1,0.9-9.3,1.5c-0.5-1.2-1.8-4.1-2.7-5.5
	c1.4-0.2,2.5-1.4,3.7-3.3c1.4-1.7,5.4-8.6,7.2-15l7.6,2.7c-1.8,4.4-4.4,8.8-7.3,12.9l5.3-0.2c1.1-1.8,2-3.5,2.8-5.3l7.2,3.4
	c-3.3,5.8-7.8,11.9-12.6,17.2l6.7-0.7c-0.5-1.1-1.1-2.1-1.5-3.1l5.8-2.1c2.1,3.9,4.5,9.1,5.2,12.3L682.8,595.8z M740.5,639.8
	c0,0-0.2,3.4-0.7,5c-1.9,9.4-4,14.6-7.2,17.2c-3.1,2.2-6.3,2.8-11,3.1c-3.9,0.1-11,0-18.3-0.2c-0.2-3.1-1.8-7.3-3.8-10.3
	c7,0.7,14.9,0.8,17.7,0.8c2.5,0,3.9-0.1,5.1-0.9c1.3-0.9,2.4-2.8,3.4-6.1h-59.7c1.9-5.5,3.9-13.6,5.3-20.2h50.4v-3.8h-53.9v-7.8
	h66.9V636h-52.3l-0.9,3.8H740.5z M671.7,614.1c-0.1-3.7-0.9-9.2-2.2-13.7l6-1.5c1.4,4.4,2.4,9.7,2.5,13.2L671.7,614.1z M682,611.4
	c-0.5-3.4-1.8-8.6-3.3-12.6l5.4-2c1.8,3.8,3.2,8.8,3.7,12L682,611.4z M715,574h-28.2v-7.3h11.1c-0.8-2.6-2.2-5.9-3.5-8.4l9.2-1.9
	c1.5,2.8,3.4,6.7,4.2,9.1l-4.7,1.2H715V574z M690.1,595.7h22.5v17.6h-22.5V595.7z M712.7,583.4h-22.4V577h22.4V583.4z M712.7,592.6
	h-22.4v-6.4h22.4V592.6z M698.3,607.1h5.9v-5.2h-5.9V607.1z M723.8,600.2c-0.9,5.5-2.6,11.8-4.7,15.7c-1.3-1.2-4.1-3.1-5.8-4.1
	c2.1-3.8,3.2-8.6,3.9-13.3L723.8,600.2z M738.6,596c-0.2-1.1-0.7-2.4-1.2-3.8c-15,2.1-17.9,2.7-19.9,3.7c-0.2-1.3-1.7-4.2-2.7-5.8
	c2-0.4,3.7-1.9,5.5-4.2c1.2-1.1,3.4-3.9,6-7.4c-6.1,0.5-8,0.9-9.4,1.5c-0.4-1.2-1.7-4.1-2.6-5.7c1.4-0.2,2.5-1.4,3.7-3.2
	c1.3-1.7,5.4-8.6,7.3-15.1l7.6,2.8c-1.8,4.2-4.5,8.8-7.4,12.9l5.5-0.2c0.8-1.8,1.8-3.5,2.6-5.3l7.3,3.2c-3.4,5.8-7.8,12-12.6,17.2
	l6.6-0.7c-0.5-1.1-0.9-2-1.4-3l5.7-2c2.1,3.8,4.6,9.2,5.3,12.5L738.6,596z M727.2,615.3c-0.1-3.7-1.1-10-2.4-14.6l6.1-1.7
	c1.3,4.6,2.5,10.6,2.5,14.3L727.2,615.3z M739.8,596.6c1.9,4.5,3.8,10.5,4.2,14.3l-5.9,2.7c-0.5-4-2.1-10.3-4-14.9L739.8,596.6z"/>
<g>
	<path class="st0" d="M650.4,304.7c0,0.2,0.1,0.3,0.1,0.5c1.6,7.7,3.2,15.3,4.8,23c0,0.2,0.2,0.4,0.3,0.6c0.1-0.2,0.2-0.4,0.3-0.6
		c1-4.6,2-9.3,2.9-13.9c0.3-1.6,0.7-3.3,1.1-5.1c0.1,0.3,0.2,0.4,0.2,0.5c1.3,6.2,2.6,12.3,3.8,18.5c0,0.2,0.2,0.4,0.3,0.6
		c0.1-0.2,0.3-0.4,0.3-0.6c1.4-6.5,2.7-12.9,4.1-19.4c0.3-1.4,0.6-2.7,0.9-4.2c0.7,0,1.3,0,1.9,0c0-0.1,0-0.1,0-0.2
		c-1.4,0-2.8,0-4.1,0c0,0.1,0,0.1,0,0.2c0.6,0,1.2,0,1.9,0c-1,4.5-1.9,8.9-2.8,13.3c-0.1,0-0.1,0-0.2,0c-1-4.4-2-8.8-3-13.3
		c0.7,0,1.4,0,2,0c-0.6-0.4-7.5-0.4-8,0c0.2,0,0.3,0.1,0.4,0.1c1.5,0.1,1.5,0.1,1.8,1.6c0.1,0.8,0.4,1.6,0.3,2.3
		c-0.3,2-0.8,4.1-1.2,6.1c-0.2,1.1-0.5,2.2-0.7,3.3c-0.1,0-0.1,0-0.2,0c-0.9-4.4-1.8-8.8-2.8-13.2c0.6,0,1.2-0.1,1.8-0.1
		c0-0.1,0-0.1,0-0.2c-2.6,0-5.3,0-7.9,0c0,0.1,0,0.1,0,0.2C649.2,304.7,649.8,304.7,650.4,304.7z"/>
	<path class="st0" d="M611.1,328.1c0-7.9,0-15.6,0-23.4c1.5,0.1,2.4,1,2.7,2.2c0.4,1.4,0.6,3,0.9,4.5c0,0.2,0,0.5,0.1,0.7
		c0.1,0,0.1,0,0.2,0c0-2.6,0-5.1,0-7.7c-4,0-8,0-12,0c0,2.6,0,5.1,0,7.7c0.1,0,0.1,0,0.2,0c0-0.6,0.1-1.2,0.1-1.8
		c0.2-1.5,0.4-3,1.3-4.3c0.5-0.8,1.2-1.3,2.2-1.2c0,7.8,0,15.6,0,23.3c-0.5,0-1,0-1.5,0.1c0,0.1,0,0.1,0,0.2c2.5,0,4.9,0,7.4,0
		c0-0.1,0-0.1,0-0.2C612.2,328.1,611.7,328.1,611.1,328.1z"/>
	<path class="st0" d="M692.8,305.4c0,0,0.1,0,0.1,0c0.1,0.2,0.2,0.3,0.2,0.5c1,2.4,1.9,4.7,2.9,7.1c2.1,5.1,4.2,10.2,6.3,15.4
		c0.1,0.2,0.3,0.4,0.4,0.6c0.1,0,0.2-0.1,0.2-0.1c0-8,0-16,0-24c0.5,0,1-0.1,1.5-0.1c0-0.1,0-0.1,0-0.2c-1.2,0-2.5,0-3.7,0
		c0,0.1,0,0.1,0,0.2c0.6,0,1.2,0,1.8,0c0,4.5,0,8.9,0,13.5c-0.2-0.4-0.3-0.6-0.4-0.9c-1.7-4.1-3.3-8.2-5-12.3
		c-0.1-0.3-0.2-0.6-0.7-0.6c-1.8,0-3.7,0-5.5,0c-0.1,0-0.3,0.1-0.4,0.1c0,0.1,0,0.1,0,0.2c0.6,0,1.2,0,1.8,0c0,7.9,0,15.6,0,23.4
		c-0.6,0-1.2,0.1-1.8,0.1c0,0.1,0,0.1,0,0.2c1.4,0,2.7,0,4.1,0c0-0.1,0-0.1,0-0.2c-0.6,0-1.2-0.1-1.8-0.1
		C692.8,320.4,692.8,312.9,692.8,305.4z"/>
	<path class="st0" d="M638.2,304.7c0,7.9,0,15.6,0,23.5c-0.5,0-1,0-1.5,0c0,0.1,0,0.1,0,0.2c2.5,0,4.9,0,7.4,0c0-0.1,0-0.1,0-0.2
		c-0.5,0-1,0-1.6,0c0-7.9,0-15.6,0-23.4c0.6,0,1.1-0.1,1.6-0.1c0-0.1,0-0.1,0-0.2c-2.5,0-4.9,0-7.4,0c0,0.1,0,0.1,0,0.2
		C637.2,304.7,637.7,304.7,638.2,304.7z"/>
	<path class="st0" d="M387.2,259.3c0.4-0.1,0.7-0.3,1.1-0.3c2.3,0,4.7,0,7,0c36.7,0,73.5,0,110.2,0c0.2,0,0.5,0,0.7,0
		c0.6-0.1,0.9,0.2,0.8,0.8c0,0.1,0,0.2,0,0.3c0,14.7,0,29.4,0,44.1c0,0.1,0,0.3,0,0.4c-0.1,0.2-0.3,0.4-0.4,0.6
		c-0.2-0.2-0.4-0.4-0.5-0.6c-0.1-1.8-0.1-3.7-0.2-5.5c-0.6-7.2-2.2-14.1-5.8-20.4c-4.5-7.8-11.2-13-19.7-15.8
		c-5.1-1.7-10.4-2.4-15.8-2.6c-2.3-0.1-4.5,0-6.8,0c-1.3,0-1.6,0.3-1.6,1.6c0,53.5,0,107.1,0,160.6c0,0.2,0,0.5,0,0.7
		c0,0.5,0.3,0.8,0.8,0.9c0.3,0,0.6,0.1,0.9,0.1c5.5,0,11,0,16.5,0c0.2,0,0.4,0,0.7-0.1c-0.4-0.2-0.6-0.3-0.8-0.4
		c-7.2-3.4-11.1-9-11.8-16.9c-0.4-4.7,0.1-9.3,1.8-13.7c2.5-6.5,7.2-10.8,13.6-13.4c3.9-1.7,8.1-2.5,12.3-2.9
		c5.7-0.5,11.5-0.9,17.2-2.1c1.6-0.4,3.2-0.9,4.7-1.5c1.5-0.6,2.3-1.8,2.3-3.6c-0.1-5.3,0-10.7,0-16c0-4.4-0.6-8.7-2.5-12.7
		c-3-6.4-10.1-10-16.7-8.5c-3.5,0.8-5.7,3.3-6.2,7.1c-0.3,2.2-0.2,4.3,0.6,6.4c0.6,1.6,0.9,3.2,0.6,4.9c-0.4,2.4-1.8,4.2-4,5.2
		c-2.2,1-4.5,1.2-6.8,0.7c-3.4-0.7-5.2-3-5.9-6.3c-1.1-4.6,0.6-8.4,3.7-11.7c3.4-3.6,7.7-5.6,12.4-6.6c7.5-1.6,15-1.2,22.2,1.3
		c7.9,2.7,13.1,8.3,16.1,16c1.7,4.4,2.6,9,3,13.7c0.2,3.1,0.3,6.2,0.3,9.3c0,14.7,0,29.4,0,44.1c0,1.1,0.1,2.2,0.4,3.3
		c0.8,2.9,3.2,4.4,6.1,3.8c2.8-0.5,5.1-2.1,6.8-4.3c0.2-0.2,0.2-0.6,0.1-0.9c-1.6-3.4-2.1-7.1-2.3-10.8c0-1,0-2,0-3
		c0-22.6,0-45.2,0-67.8c0-1.2-0.2-1.5-1.5-1.5c-4.6,0-9.1,0-13.7,0c-0.8,0-1.1-0.3-1.1-1.1c0-0.8,0.3-1,1.1-1c4.4,0,8.9,0,13.3,0
		c0.2,0,0.5,0,0.7,0c0.8-0.1,0.9-0.3,1-1.1c0.1-4.3,0.1-8.6,0.2-12.9c0-0.2,0-0.3,0-0.3c1.8-0.4,3.5-0.6,5.1-1.2
		c5.8-2.1,9.3-6.4,10.8-12.3c0-0.1,0-0.3,0.1-0.3c0.2-0.2,0.4-0.3,0.6-0.4c0.1,0.2,0.3,0.4,0.3,0.6c0,1.1,0,2.3,0,3.4
		c0,2.3-0.1,4.7-0.1,7c-0.1,5.4-0.1,10.7-0.2,16.1c0,1.3,0.1,1.5,1.5,1.5c2.7,0,5.3,0,8,0c2,0,3.9,0,5.9,0c0.8,0,1.1,0.3,1.1,1.1
		c0,0.7-0.4,1.1-1.1,1.1c-4.5,0-8.9,0-13.4,0c-0.3,0-0.6,0-0.9,0c-0.6,0.1-0.9,0.4-0.9,1.1c0,0.4,0,0.8,0,1.1c0,26.6,0,53.2,0,79.7
		c0,1.1,0.2,2.4,0.7,3.4c0.8,1.9,2.5,2.7,4.5,2.9c2.6,0.2,5-0.6,7.1-2.1c3.2-2.2,5.3-5.2,6.9-8.7c0.2-0.4,0.4-0.8,0.5-1.2
		c0.9-2.1,1.4-4.3,1.4-6.7c0-57,0-114,0-170.9c0-1.5-0.2-1.6-1.7-1.6c-3.7,0-7.3,0-11,0c-0.8,0-0.9-0.1-0.7-0.9c9.9,0,19.8,0,29.7,0
		c0.1,0.4,0.2,0.8,0.2,1.2c0,24.1,0,48.2,0,72.4c0,36.5,0,73.1,0,109.6c0,1.4,0.2,2.8,0.7,4.1c1,3.3,3.5,5,6.9,5
		c5.6,0.1,11.3,0.2,16.9,0.2c2.7,0,5.4,0,8.1,0c0,0-0.1-0.1-0.3-0.2c-9.6-4.2-16.5-11.2-21.2-20.4c-4.5-8.7-6.2-18-5.6-27.7
		c0.6-9.8,3.5-18.8,9.2-26.8c6.2-8.7,14.4-14.5,24.9-16.8c6.6-1.4,13.2-1.2,19.6,0.9c0.3,0.1,0.7,0.1,1.1,0.1c15.2,0,30.3,0,45.5,0
		c1.1,0,1.1,0,1.1,1.1c0,4.2,0,8.3,0,12.5c0,0.2,0,0.5,0,0.9c0.6-1.6,1.2-3,1.8-4.4c1.2-2.7,2.8-5.3,5-7.4c3.4-3.2,7.4-4.6,12-4.7
		c2.9-0.1,5.8,0.2,8.6,1.3c3.8,1.6,6,4.5,6.6,8.6c0.4,2.3,0.4,4.5-0.7,6.7c-1.7,3.5-5,5.4-8.9,5.2c-1.4-0.1-2.8-0.4-4.1-1
		c-3.6-1.7-4.8-5.7-2.9-9.3c0.2-0.5,0.5-0.9,0.8-1.4c0.7-1.2,0.8-2.4,0.6-3.8c-0.3-1.9-1.8-3.1-4-3.4c-3.3-0.4-6.1,0.8-8.3,3.2
		c-2.6,2.8-4.2,6.2-5.5,9.7c-0.4,0.9-0.7,1.9-1,2.8c-0.1,0.4-0.2,0.8-0.2,1.2c0,24,0,48,0,72c0,0.9,0.1,1.1,1.1,1.1
		c2.6,0,5.2,0,7.9,0.1c0.2,0,0.4,0,0.6,0c0.2,0.1,0.4,0.3,0.4,0.4c0,0.2-0.2,0.4-0.4,0.5c-0.1,0.1-0.4,0-0.6,0
		c-11.6,0-23.1,0-34.7,0c-0.2,0-0.5,0.1-0.6,0c-0.1-0.1-0.3-0.3-0.3-0.5c0-0.1,0.2-0.3,0.3-0.4c0.2-0.1,0.4,0,0.6,0
		c2.6,0,5.3,0,7.9-0.1c0.9,0,1-0.2,1-1.1c0-29.2,0-58.4,0-87.6c0-1-0.3-1.4-1.3-1.4c-8.7,0-17.4,0-26.1,0c-0.1,0-0.2,0-0.4,0.1
		c0.2,0.1,0.2,0.2,0.3,0.3c7.3,3.5,12.5,9.1,16.3,16.1c3.8,7,5.8,14.4,6,22.3c0,1.1,0,1.2-1.2,1.2c-19.9,0-39.7,0-59.6,0
		c-0.3,0-0.7,0-1.1,0c-0.1,1.2-0.2,2.3-0.2,3.5c0.1,6.4,0.2,12.8,0.5,19.1c0.3,5.2,0.9,10.4,2.7,15.3c2.9,7.9,8.5,12.6,16.9,13.6
		c13.6,1.6,25.1-2.8,34.2-13.1c1.6-1.7,2.9-3.7,4.3-5.6c0.1-0.1,0.1-0.2,0.2-0.2c0.2-0.1,0.5-0.2,0.7-0.3c0,0.2,0.1,0.5,0,0.7
		c-1.1,1.5-2.1,3-3.2,4.5c-5.5,6.8-12.3,11.8-20.8,14.1c-7.4,2.1-14.8,1.9-22.1-0.3c-0.5-0.1-1-0.2-1.5-0.2c-20.7,0-41.5,0-62.2,0
		c-0.5,0-1,0.1-1.4,0.3c-5.4,2.1-10.8,2.3-16.2,0.1c-2.6-1-4.6-2.8-6.2-5.1c-0.2-0.3-0.3-0.5-0.5-0.8c-1.5,2.2-3.4,3.9-5.7,5.1
		c-5.3,2.6-10.6,3-16,0.4c-3.6-1.7-5.8-4.8-7.1-8.5c-0.4-1-0.6-2.1-0.9-3.2c0,0-0.1,0-0.1,0.1c-1.6,4.6-4.9,7.7-9.1,9.9
		c-5.2,2.7-10.8,3.5-16.6,3.5c-3.9-0.1-7.7-0.5-11.4-1.6c-0.3-0.1-0.7-0.1-1-0.1c-16.3,0-32.6,0-48.9,0c-0.4,0-1,0.3-1.1-0.4
		c0-0.7,0.7-0.4,1-0.4c2.6,0,5.2,0,7.8-0.1c0.9,0,1.1-0.2,1.1-1.1c0-53.8,0-107.6,0-161.4c0-0.9-0.3-1.2-1.1-1.2
		c-7.5-0.2-15,0-22.2,2.3c-11.4,3.6-18.9,11.2-22.8,22.5c-1.9,5.5-2.7,11.2-2.9,16.9c0,0.8-0.1,1.7-0.1,2.5c0,0.7-0.3,0.8-0.9,0.6
		C387.2,289.9,387.2,274.6,387.2,259.3z M664.8,372.4c0-0.3,0-0.5,0-0.8c-0.2-6-0.4-12.1-1.3-18c-0.5-3.8-1.3-7.5-2.7-11
		c-2.1-5.2-5.6-8.8-11.2-10.1c-3.8-0.9-7.7-0.7-11.5,0.1c-6.5,1.3-11.2,5-13.8,11.2c-1.7,4.1-2.7,8.3-3.2,12.7
		c-0.5,4.4-0.7,8.8-1.1,13.2c-0.1,0.9,0,1.8,0,2.7C635,372.4,649.9,372.4,664.8,372.4z M514.4,373.4c-0.1,0-0.2,0-0.2,0
		c-2.7,1.6-5.6,2.1-8.6,2.5c-3.7,0.5-7.4,0.9-11.1,1.4c-4.5,0.6-8.2,2.6-10.8,6.4c-1.7,2.4-2.8,5.2-3.5,8c-1.2,4.9-1.5,9.9-1.3,14.9
		c0.1,3.8,0.7,7.5,2.3,10.9c1.8,3.9,4.8,6.4,9.1,7.2c2.5,0.5,5.1,0.5,7.6,0.1c5.2-0.9,9.7-3,13.3-7c2.1-2.4,3.3-5.2,3.2-8.5
		c0-11.7,0-23.4,0-35.2C514.4,373.9,514.4,373.7,514.4,373.4z M580.2,410.3c-2.1,5.3-4.7,10.3-9.6,13.7c3.3,0,6.4,0,9.6,0
		C580.2,419.4,580.2,414.9,580.2,410.3z"/>
	<path class="st0" d="M650.4,304.7c-0.6,0-1.2-0.1-1.8-0.1c0-0.1,0-0.1,0-0.2c2.6,0,5.3,0,7.9,0c0,0.1,0,0.1,0,0.2
		c-0.6,0-1.2,0.1-1.8,0.1c0.9,4.4,1.9,8.8,2.8,13.2c0.1,0,0.1,0,0.2,0c0.2-1.1,0.5-2.2,0.7-3.3c0.4-2,0.9-4,1.2-6.1
		c0.1-0.7-0.1-1.5-0.3-2.3c-0.3-1.5-0.3-1.5-1.8-1.6c-0.1,0-0.2,0-0.4-0.1c0.4-0.3,7.4-0.4,8,0c-0.6,0-1.3,0-2,0c1,4.5,2,8.9,3,13.3
		c0.1,0,0.1,0,0.2,0c0.9-4.4,1.8-8.8,2.8-13.3c-0.7,0-1.3,0-1.9,0c0-0.1,0-0.1,0-0.2c1.4,0,2.8,0,4.1,0c0,0.1,0,0.1,0,0.2
		c-0.6,0-1.2,0-1.9,0c-0.3,1.5-0.6,2.8-0.9,4.2c-1.4,6.5-2.7,12.9-4.1,19.4c0,0.2-0.2,0.4-0.3,0.6c-0.1-0.2-0.2-0.4-0.3-0.6
		c-1.3-6.2-2.6-12.3-3.8-18.5c0-0.1-0.1-0.2-0.2-0.5c-0.4,1.8-0.7,3.5-1.1,5.1c-1,4.6-1.9,9.3-2.9,13.9c0,0.2-0.2,0.4-0.3,0.6
		c-0.1-0.2-0.3-0.4-0.3-0.6c-1.6-7.6-3.2-15.3-4.8-23C650.5,305.1,650.5,304.9,650.4,304.7z"/>
	<path class="st0" d="M611.1,328.1c0.5,0,1,0,1.5,0c0,0.1,0,0.1,0,0.2c-2.5,0-4.9,0-7.4,0c0-0.1,0-0.1,0-0.2c0.5,0,1,0,1.5-0.1
		c0-7.8,0-15.5,0-23.3c-1,0-1.7,0.5-2.2,1.2c-0.9,1.3-1.1,2.8-1.3,4.3c-0.1,0.6-0.1,1.2-0.1,1.8c-0.1,0-0.1,0-0.2,0
		c0-2.5,0-5.1,0-7.7c4,0,8,0,12,0c0,2.6,0,5.1,0,7.7c-0.1,0-0.1,0-0.2,0c0-0.2,0-0.5-0.1-0.7c-0.3-1.5-0.4-3-0.9-4.5
		c-0.4-1.2-1.2-2.2-2.7-2.2C611.1,312.5,611.1,320.2,611.1,328.1z"/>
	<path class="st0" d="M692.8,305.4c0,7.5,0,15.1,0,22.7c0.6,0,1.2,0.1,1.8,0.1c0,0.1,0,0.1,0,0.2c-1.4,0-2.7,0-4.1,0
		c0-0.1,0-0.1,0-0.2c0.6,0,1.2-0.1,1.8-0.1c0-7.8,0-15.5,0-23.4c-0.6,0-1.2,0-1.8,0c0-0.1,0-0.1,0-0.2c0.1,0,0.3-0.1,0.4-0.1
		c1.8,0,3.7,0,5.5,0c0.5,0,0.6,0.3,0.7,0.6c1.7,4.1,3.3,8.2,5,12.3c0.1,0.2,0.2,0.5,0.4,0.9c0-4.6,0-9,0-13.5c-0.6,0-1.2,0-1.8,0
		c0-0.1,0-0.1,0-0.2c1.2,0,2.5,0,3.7,0c0,0.1,0,0.1,0,0.2c-0.5,0-0.9,0.1-1.5,0.1c0,8,0,16,0,24c-0.1,0-0.2,0.1-0.2,0.1
		c-0.1-0.2-0.3-0.4-0.4-0.6c-2.1-5.1-4.2-10.2-6.3-15.4c-1-2.4-1.9-4.7-2.9-7.1c-0.1-0.2-0.2-0.3-0.2-0.5
		C692.8,305.3,692.8,305.3,692.8,305.4z"/>
	<path class="st0" d="M638.2,304.7c-0.5,0-1,0-1.5,0c0-0.1,0-0.1,0-0.2c2.5,0,4.9,0,7.4,0c0,0.1,0,0.1,0,0.2c-0.5,0-1,0.1-1.6,0.1
		c0,7.8,0,15.5,0,23.4c0.5,0,1,0,1.6,0c0,0.1,0,0.1,0,0.2c-2.5,0-4.9,0-7.4,0c0-0.1,0-0.1,0-0.2c0.5,0,1,0,1.5,0
		C638.2,320.3,638.2,312.6,638.2,304.7z"/>
	<g>
		<path class="st0" d="M685.9,328.1c-0.6,0-1.2,0-1.8,0c-0.1-0.3-0.1-0.4-0.2-0.6c-1.9-7.6-3.7-15.1-5.6-22.7
			c-0.1-0.3-0.3-0.6-0.4-1c-0.1,0.3-0.3,0.6-0.4,1c-1.9,7.5-3.7,15-5.5,22.5c-0.2,0.7-0.4,0.9-1.1,0.8c-0.3,0-0.7,0-1,0.1
			c0,0.1,0,0.1,0,0.2c1.4,0,2.7,0,4.1,0c0-0.1,0-0.1,0-0.2c-0.6,0-1.2-0.1-1.9-0.1c0.6-2.5,1.2-4.9,1.8-7.3c0-0.2,0.3-0.4,0.5-0.4
			c1,0,2,0,3,0c0.2,0,0.4,0.2,0.5,0.4c0.6,2.4,1.2,4.9,1.9,7.4c-0.6,0-1.2,0.1-1.8,0.1c0,0.1,0,0.1,0,0.2c2.6,0,5.2,0,7.9,0
			C686,328.3,685.9,328.2,685.9,328.1z M674.2,320c0.6-2.3,1.1-4.6,1.7-6.9c0.1,0,0.1,0,0.2,0c0.6,2.3,1.1,4.6,1.7,6.9
			C676.6,320,675.5,320,674.2,320z"/>
	</g>
	<path class="st0" d="M632.9,328.1c-0.3,0-0.5,0-0.8,0c-0.8,0.1-1-0.2-1.2-1c-1.8-7.6-3.7-15.1-5.6-22.7c-0.1-0.2-0.2-0.4-0.3-0.6
		c-0.1,0.2-0.3,0.4-0.3,0.6c-0.2,0.8-0.4,1.7-0.6,2.5c-1.7,6.8-3.3,13.5-5,20.3c-0.1,0.6-0.4,0.9-1,0.8c-0.4-0.1-0.7,0-1.1,0
		c0,0.1,0,0.1,0,0.2c1.4,0,2.8,0,4.1,0c0-0.1,0-0.1,0-0.2c-0.6,0-1.2-0.1-1.9-0.1c0.4-1.8,0.9-3.5,1.3-5.3c0.2-0.8,0.2-1.9,0.7-2.3
		c0.6-0.4,1.6-0.2,2.5-0.2c1.2,0,1.2,0,1.5,1.2c0.5,2.2,1.1,4.3,1.6,6.5c-0.6,0-1.2,0.1-1.8,0.1c0,0.1,0,0.1,0,0.2
		c2.6,0,5.2,0,7.9,0C632.9,328.3,632.9,328.2,632.9,328.1z M621.2,319.9c0.6-2.3,1.1-4.6,1.7-6.9c0.1,0,0.1,0,0.2,0
		c0.6,2.3,1.1,4.5,1.7,6.9C623.6,319.9,622.4,319.9,621.2,319.9z"/>
</g>
</svg>
