<?xml version="1.0" encoding="utf-8"?>
<!-- Generator: Adobe Illustrator 25.2.1, SVG Export Plug-In . SVG Version: 6.00 Build 0)  -->
<svg version="1.1" id="Layer_1" xmlns="http://www.w3.org/2000/svg" xmlns:xlink="http://www.w3.org/1999/xlink" x="0px" y="0px"
	 viewBox="0 0 466.1 466.1" style="enable-background:new 0 0 466.1 466.1;" xml:space="preserve">
<style type="text/css">
	.st0{fill:#FFFFFF;}
</style>
<g>
	<rect x="85.8" y="403.7" class="st0" width="30" height="59.8"/>
	<rect x="262.2" y="423.7" class="st0" width="30" height="39.8"/>
	<path class="st0" d="M466.1,220.9c0-51.2-38.4-93.6-87.9-99.9C364.3,52.7,303.9,2.7,233.1,2.7s-131.2,50-145.2,118.3
		C38.4,127.3,0,169.7,0,220.9c0,50.5,37.3,92.4,85.8,99.6v46.2h30v-45.1H174v141.8h30V321.6h58.2v65.1h30v-65.1h58.2v141.8h30V320.5
		C428.8,313.3,466.1,271.3,466.1,220.9z M365.4,291.6H100.8c-39,0-70.8-31.7-70.8-70.8s31.7-70.8,70.8-70.8h13.3l1.6-13.2
		c7-59.4,57.5-104.2,117.4-104.2s110.4,44.8,117.4,104.2l1.6,13.2h13.3c39,0,70.8,31.7,70.8,70.8
		C436.1,259.9,404.4,291.6,365.4,291.6z"/>
</g>
</svg>
